<svg viewBox="0 0 40 40" fill="none" xmlns="http://www.w3.org/2000/svg">
<path d="M20 40C31.0457 40 40 31.0457 40 20C40 8.9543 31.0457 0 20 0C8.9543 0 0 8.9543 0 20C0 31.0457 8.9543 40 20 40Z" fill="#007BFE"/>
<path d="M6.56849 12.4885H11.2281C11.3811 20.2771 14.8162 23.5761 17.5371 24.2563V12.4884H21.9247V19.2056C24.6115 18.9165 27.4345 15.8555 28.3867 12.4884H32.7741C32.4153 14.2347 31.6998 15.8881 30.6729 17.3453C29.6458 18.8025 28.3292 20.032 26.8052 20.9573C28.5067 21.8019 30.0097 22.9981 31.2144 24.4668C32.4192 25.9354 33.2987 27.6433 33.7946 29.4772H28.965C28.5199 27.8841 27.6144 26.4582 26.3619 25.378C25.1094 24.2979 23.5656 23.612 21.9247 23.4059V29.4771H21.3974C12.0954 29.4771 6.78962 23.1001 6.56849 12.4885Z" fill="#FEFEFE"/>
</svg>
