<svg width="512" height="512" viewBox="0 0 512 512" fill="none" xmlns="http://www.w3.org/2000/svg">
<path d="M256 0C397.385 0 512 114.615 512 256C512 397.385 397.385 512 256 512C114.615 512 0 397.385 0 256C0 114.615 114.615 0 256 0ZM364.513 57.9971C363.889 53.6054 359.638 50.6522 354.856 51.2852C333.102 54.1654 296.455 66.9691 271.328 97.3584C252.02 120.711 245.458 147.26 244.291 167.923C239.906 160.602 234.177 153.575 226.801 147.41C201.668 126.406 167.43 123.793 146.351 125.61C141.523 126.027 137.86 129.709 137.856 134.154C137.842 153.546 143.901 184.49 169.032 205.493C193.094 225.602 225.443 228.913 245.759 226.842V271.615H163.839C146.873 271.615 133.118 285.369 133.118 302.335C133.118 316.469 142.663 328.373 155.658 331.954L175.124 418.254C180.307 441.232 182.899 452.722 191.312 459.448C199.724 466.175 211.503 466.175 235.059 466.175H276.936C300.491 466.175 312.269 466.175 320.682 459.448C329.094 452.722 331.686 441.232 336.869 418.254L356.335 331.955C369.332 328.375 378.879 316.47 378.879 302.335C378.879 285.369 365.124 271.615 348.158 271.615H266.238V188.723C288.492 182.703 317.562 169.55 338.604 144.1C363.729 113.712 367.348 77.9631 364.513 57.9971ZM348.158 292.095C353.814 292.095 358.398 296.68 358.398 302.335C358.398 307.99 353.814 312.575 348.158 312.575H163.839C158.183 312.575 153.599 307.99 153.599 302.335C153.599 296.68 158.183 292.095 163.839 292.095H348.158ZM159.892 144.733C176.827 145.087 197.245 149.3 212.358 161.931C227.716 174.765 233.993 193.298 235.364 207.809C219.518 207.87 198.844 203.817 183.474 190.972C168.349 178.331 161.859 160.117 159.892 144.733ZM343.999 73.5908C343.452 90.2262 338.003 112.799 321.785 132.414C305.789 151.761 283.797 162.8 265.547 168.475C266.546 150.803 272.157 128.383 288.146 109.044C304.357 89.4385 326.635 78.5534 343.999 73.5908Z" fill="#8CAAFF"/>
</svg>
